<svg xmlns="http://www.w3.org/2000/svg" width="447.40679931640625" height="217.86260986328125" viewBox="-88.3346176147461 28.258358001708984 447.40679931640625 217.86260986328125"><title>Neo4j Graph Visualization</title><desc>Created using Neo4j (http://www.neo4j.com/)</desc><g class="layer relationships"><g class="relationship" transform="translate(20.174316941005884 175.94205274274373) rotate(420.53282784275655)"><path class="outline" fill="#A5ABB6" stroke="none" d="M 10.835724717245366 38.50762352901147 L 21.188486521346196 77.14465658057419 A 21.935935394489817 21.935935394489817 0 1 1 -21.188486521346196 77.14465658057419 L -12.647458032963009 45.26910431303495 L -8.783754727806736 46.30438049344503 L -10.352761804100831 38.63703305156273 L -15.545235511830214 44.49264717772739 L -11.68153220667394 45.52792335813747 L -20.22256069505713 77.40347562567672 A 20.935935394489817 20.935935394489817 0 1 0 20.22256069505713 77.40347562567672 L 9.869798890956297 38.76644257411399 Z"/><text text-anchor="middle" pointer-events="none" font-size="8px" fill="#000000" x="0" y="113.75802982729645" font-family="sans-serif">KNOWS</text></g><g class="relationship" transform="translate(20.174316941005884 175.94205274274373) rotate(301.84219897717327)"><path class="outline" fill="#A5ABB6" stroke="none" d="M 40 0.5 L 44.88592200860728 0.5 L 44.88592200860728 -0.5 L 40 -0.5 Z M 102.82342200860728 0.5 L 107.70934401721456 0.5 L 107.70934401721456 3.5 L 114.70934401721456 0 L 107.70934401721456 -3.5 L 107.70934401721456 -0.5 L 102.82342200860728 -0.5 Z"/><text text-anchor="middle" pointer-events="none" font-size="8px" fill="#000000" x="73.85467200860728" y="3" font-family="sans-serif">KNOWN_FOR</text></g><g class="relationship" transform="translate(20.174316941005884 175.94205274274373) rotate(359.22345670833977)"><path class="outline" fill="#A5ABB6" stroke="none" d="M 40 0.5 L 58.92144144672089 0.5 L 58.92144144672089 -0.5 L 40 -0.5 Z M 96.48394144672089 0.5 L 115.40538289344178 0.5 L 115.40538289344178 3.5 L 122.40538289344178 0 L 115.40538289344178 -3.5 L 115.40538289344178 -0.5 L 96.48394144672089 -0.5 Z"/><text text-anchor="middle" pointer-events="none" font-size="8px" fill="#000000" x="77.70269144672089" y="3" font-family="sans-serif">PLAY_IN</text></g><g class="relationship" transform="translate(175.06547274880919 173.8426476159028) rotate(359.6222679120244)"><path class="outline" fill="#A5ABB6" stroke="none" d="M 32.5 0.5 L 45.81754003998175 0.5 L 45.81754003998175 -0.5 L 32.5 -0.5 Z M 109.69254003998175 0.5 L 123.0100800799635 0.5 L 123.0100800799635 3.5 L 130.0100800799635 0 L 123.0100800799635 -3.5 L 123.0100800799635 -0.5 L 109.69254003998175 -0.5 Z"/><text text-anchor="middle" pointer-events="none" font-size="8px" fill="#000000" x="77.75504003998175" y="3" font-family="sans-serif">PRODUCED_IN</text></g><g class="relationship" transform="translate(175.06547274880919 173.8426476159028) rotate(235.14870693904606)"><path class="outline" fill="#A5ABB6" stroke="none" d="M 32.5 0.5 L 41.5170939005652 0.5 L 41.5170939005652 -0.5 L 32.5 -0.5 Z M 101.0483439005652 0.5 L 110.0654378011304 0.5 L 110.0654378011304 3.5 L 117.0654378011304 0 L 110.0654378011304 -3.5 L 110.0654378011304 -0.5 L 101.0483439005652 -0.5 Z"/><text text-anchor="middle" pointer-events="none" font-size="8px" fill="#000000" x="71.2827189005652" y="3" transform="rotate(180 71.2827189005652 0)" font-family="sans-serif">BELONGS_TO</text></g></g><g class="layer nodes"><g class="node" transform="translate(20.174316941005884,175.94205274274373)"><circle class="outline" cx="0" cy="0" r="40" fill="#57C7E3" stroke="#23b3d7" stroke-width="2px"/><text text-anchor="middle" pointer-events="none" font-family="sans-serif" dy="2.5" font-size="40" fill="#2A2C34"/><text text-anchor="middle" pointer-events="none" x="0" y="5" font-size="10px" fill="#2A2C34" font-family="sans-serif"> Actor</text></g><g class="node" transform="translate(175.06547274880919,173.8426476159028)"><circle class="outline" cx="0" cy="0" r="32.5" fill="#F79767" stroke="#f36924" stroke-width="2px"/><text text-anchor="middle" pointer-events="none" font-family="sans-serif" dy="2.03125" font-size="32.5" fill="#FFFFFF"/><text text-anchor="middle" pointer-events="none" x="0" y="5" font-size="10px" fill="#FFFFFF" font-family="sans-serif"> Movie</text></g><g class="node" transform="translate(93.88239729805366,57.25835674451744)"><circle class="outline" cx="0" cy="0" r="25" fill="#8DCC93" stroke="#5db665" stroke-width="2px"/><text text-anchor="middle" pointer-events="none" font-family="sans-serif" dy="1.5625" font-size="25" fill="#2A2C34"/><text text-anchor="middle" pointer-events="none" x="0" y="5" font-size="10px" fill="#2A2C34" font-family="sans-serif"> Genre</text></g><g class="node" transform="translate(330.0721842177474,172.8207249270297)"><circle class="outline" cx="0" cy="0" r="25" fill="#D9C8AE" stroke="#c0a378" stroke-width="2px"/><text text-anchor="middle" pointer-events="none" font-family="sans-serif" dy="1.5625" font-size="25" fill="#2A2C34"/><text text-anchor="middle" pointer-events="none" x="0" y="5" font-size="10px" fill="#2A2C34" font-family="sans-serif"> Country</text></g></g></svg>